<?xml version="1.0" encoding="iso-8859-1"?>
<!-- Uploaded to: SVG Repo, www.svgrepo.com, Generator: SVG Repo Mixer Tools -->
<!DOCTYPE svg PUBLIC "-//W3C//DTD SVG 1.1//EN" "http://www.w3.org/Graphics/SVG/1.1/DTD/svg11.dtd">
<svg fill="#000000" version="1.1" id="Capa_1" xmlns="http://www.w3.org/2000/svg" xmlns:xlink="http://www.w3.org/1999/xlink" 
	 width="800px" height="800px" viewBox="0 0 390.126 390.125"
	 xml:space="preserve">

<symbol id="icon-dog-paw" viewBox="0 0 390.126 390.125">
		<path d="M132.64,177.859c31.162,0,56.508-34.014,56.508-75.834c0-41.817-25.347-75.841-56.508-75.841
			c-31.153,0-56.502,34.023-56.502,75.841C76.138,143.845,101.487,177.859,132.64,177.859z"/>
		<path d="M300.246,251.628c-1.159-1.579-2.27-3.068-2.864-4.348c-12.635-27.046-47.27-58.931-103.382-59.724l-2.159-0.012
			c-55.25,0-89.627,30.197-103.381,58.469c-0.475,0.967-1.52,2.222-2.627,3.549c-1.31,1.555-2.606,3.146-3.714,4.875
			c-11.619,18.075-17.543,38.426-16.669,57.299c0.916,20.037,9.305,36.131,23.581,45.312c5.768,3.705,11.992,5.572,18.522,5.572
			c13.465,0,25.793-7.584,40.079-16.368c9.083-5.598,18.465-11.374,28.886-15.697c1.168-0.385,5.954-0.973,13.781-0.973
			c9.307,0,15.991,0.828,17.419,1.321c10.173,4.491,19.107,10.382,27.748,16.068c13.247,8.731,25.755,16.97,39.326,16.97
			c5.824,0,11.469-1.537,16.795-4.563c29.382-16.693,34.979-62.492,12.484-102.088C302.942,255.303,301.597,253.448,300.246,251.628
			z"/>
		<path d="M252.796,177.859c31.147,0,56.499-34.014,56.499-75.834c0-41.817-25.352-75.841-56.499-75.841
			c-31.165,0-56.511,34.023-56.511,75.841C196.285,143.845,221.631,177.859,252.796,177.859z"/>
		<path d="M345.595,138.918c-24.975,0-44.521,25.901-44.521,58.967c0,33.051,19.558,58.955,44.521,58.955
			c24.961,0,44.531-25.904,44.531-58.955C390.126,164.82,370.568,138.918,345.595,138.918z"/>
		<path d="M89.048,197.885c0-33.065-19.558-58.967-44.522-58.967C19.561,138.918,0,164.82,0,197.885
			c0,33.051,19.561,58.955,44.526,58.955C69.491,256.84,89.048,230.936,89.048,197.885z"/>
</symbol>

<symbol id="icon-search" viewBox="0 0 24 24">
	<path d="M3.624,15a8.03,8.03,0,0,0,10.619.659l5.318,5.318a1,1,0,0,0,1.414-1.414l-5.318-5.318A8.04,8.04,0,0,0,3.624,3.624,8.042,8.042,0,0,0,3.624,15Zm1.414-9.96a6.043,6.043,0,1,1-1.77,4.274A6,6,0,0,1,5.038,5.038Z"></path>
</symbol>


<symbol id="icon-cart" viewBox="0 0 576 512">
	<path d="M0 24C0 10.7 10.7 0 24 0H69.5c22 0 41.5 12.8 50.6 32h411c26.3 0 45.5 25 38.6 50.4l-41 152.3c-8.5 31.4-37 53.3-69.5 53.3H170.7l5.4 28.5c2.2 11.3 12.1 19.5 23.6 19.5H488c13.3 0 24 10.7 24 24s-10.7 24-24 24H199.7c-34.6 0-64.3-24.6-70.7-58.5L77.4 54.5c-.7-3.8-4-6.5-7.9-6.5H24C10.7 48 0 37.3 0 24zM128 464a48 48 0 1 1 96 0 48 48 0 1 1 -96 0zm336-48a48 48 0 1 1 0 96 48 48 0 1 1 0-96z"/>
</symbol>


<symbol id="icon-user" viewBox="0 0 448 512">
	<path d="M224 256A128 128 0 1 0 224 0a128 128 0 1 0 0 256zm-45.7 48C79.8 304 0 383.8 0 482.3C0 498.7 13.3 512 29.7 512H418.3c16.4 0 29.7-13.3 29.7-29.7C448 383.8 368.2 304 269.7 304H178.3z"/>
</symbol>

<symbol id="icon-heart" viewBox="0 0 230 230">
	<path d="M213.588,120.982L115,213.445l-98.588-92.463C-6.537,96.466-5.26,57.99,19.248,35.047l2.227-2.083
	c24.51-22.942,62.984-21.674,85.934,2.842L115,43.709l7.592-7.903c22.949-24.516,61.424-25.784,85.936-2.842l2.227,2.083
	C235.26,57.99,236.537,96.466,213.588,120.982z"/>
</symbol>

<symbol id="icon-instagram" viewBox="0 0 448 512">
	<path d="M224.1 141c-63.6 0-114.9 51.3-114.9 114.9s51.3 114.9 114.9 114.9S339 319.5 339 255.9 287.7 141 224.1 141zm0 189.6c-41.1 0-74.7-33.5-74.7-74.7s33.5-74.7 74.7-74.7 74.7 33.5 74.7 74.7-33.6 74.7-74.7 74.7zm146.4-194.3c0 14.9-12 26.8-26.8 26.8-14.9 0-26.8-12-26.8-26.8s12-26.8 26.8-26.8 26.8 12 26.8 26.8zm76.1 27.2c-1.7-35.9-9.9-67.7-36.2-93.9-26.2-26.2-58-34.4-93.9-36.2-37-2.1-147.9-2.1-184.9 0-35.8 1.7-67.6 9.9-93.9 36.1s-34.4 58-36.2 93.9c-2.1 37-2.1 147.9 0 184.9 1.7 35.9 9.9 67.7 36.2 93.9s58 34.4 93.9 36.2c37 2.1 147.9 2.1 184.9 0 35.9-1.7 67.7-9.9 93.9-36.2 26.2-26.2 34.4-58 36.2-93.9 2.1-37 2.1-147.8 0-184.8zM398.8 388c-7.8 19.6-22.9 34.7-42.6 42.6-29.5 11.7-99.5 9-132.1 9s-102.7 2.6-132.1-9c-19.6-7.8-34.7-22.9-42.6-42.6-11.7-29.5-9-99.5-9-132.1s-2.6-102.7 9-132.1c7.8-19.6 22.9-34.7 42.6-42.6 29.5-11.7 99.5-9 132.1-9s102.7-2.6 132.1 9c19.6 7.8 34.7 22.9 42.6 42.6 11.7 29.5 9 99.5 9 132.1s2.7 102.7-9 132.1z"/>
</symbol>

<symbol id="icon-x" viewBox="0 0 512 512">
	<path d="M389.2 48h70.6L305.6 224.2 487 464H345L233.7 318.6 106.5 464H35.8L200.7 275.5 26.8 48H172.4L272.9 180.9 389.2 48zM364.4 421.8h39.1L151.1 88h-42L364.4 421.8z"/>
</symbol>


<symbol id="icon-phone" viewBox="0 0 512 512"> 
	<path d="M347.1 24.6c7.7-18.6 28-28.5 47.4-23.2l88 24C499.9 30.2 512 46 512 64c0 247.4-200.6 448-448 448c-18 0-33.8-12.1-38.6-29.5l-24-88c-5.3-19.4 4.6-39.7 23.2-47.4l96-40c16.3-6.8 35.2-2.1 46.3 11.6L207.3 368c70.4-33.3 127.4-90.3 160.7-160.7L318.7 167c-13.7-11.2-18.4-30-11.6-46.3l40-96z"/>
</symbol>

<symbol id="icon-mail" viewBox="0 0 512 512">
	<path d="M48 64C21.5 64 0 85.5 0 112c0 15.1 7.1 29.3 19.2 38.4L236.8 313.6c11.4 8.5 27 8.5 38.4 0L492.8 150.4c12.1-9.1 19.2-23.3 19.2-38.4c0-26.5-21.5-48-48-48H48zM0 176V384c0 35.3 28.7 64 64 64H448c35.3 0 64-28.7 64-64V176L294.4 339.2c-22.8 17.1-54 17.1-76.8 0L0 176z"/>
</symbol>

<symbol id="icon-location" viewBox="0 0 384 512">
	<path d="M215.7 499.2C267 435 384 279.4 384 192C384 86 298 0 192 0S0 86 0 192c0 87.4 117 243 168.3 307.2c12.3 15.3 35.1 15.3 47.4 0zM192 128a64 64 0 1 1 0 128 64 64 0 1 1 0-128z"/>
</symbol>

<symbol id="icon-social" viewBox="0 0 448 512">
	<path d="M352 224c53 0 96-43 96-96s-43-96-96-96s-96 43-96 96c0 4 .2 8 .7 11.9l-94.1 47C145.4 170.2 121.9 160 96 160c-53 0-96 43-96 96s43 96 96 96c25.9 0 49.4-10.2 66.6-26.9l94.1 47c-.5 3.9-.7 7.8-.7 11.9c0 53 43 96 96 96s96-43 96-96s-43-96-96-96c-25.9 0-49.4 10.2-66.6 26.9l-94.1-47c.5-3.9 .7-7.8 .7-11.9s-.2-8-.7-11.9l94.1-47C302.6 213.8 326.1 224 352 224z"/>
</symbol>

</svg>